# xmcd
#
# Track frame offsets:
#	150
#	10245
#	35503
#	49656
#	66857
#	80732
#	106481
#	117082
#	133199
#	142576
#	160963
#	175064
#	202883
#
# Disc length: 2947 seconds
#
# Revision: 0
# Processed by: cddbd v1.5.1PL2 Copyright (c) Steve Scherf et al.
# Submitted via: dBpowerAMP V4.0
#
DISCID=aa0b810d
DTITLE=bGang Olsena - Disco&Blues
DYEAR=1900
DGENRE=
TTITLE0=Przedstawianko
TTITLE1=Blues muzyki krol
TTITLE2=Aldoona
TTITLE3=Jade dzis do ciebie
TTITLE4=Caly jestem happy
TTITLE5=To takie trudne
TTITLE6=Krzysztof K.
TTITLE7=Chodz do baru
TTITLE8=Tylko wroc
TTITLE9=Nie oklamuj mnie
TTITLE10=Jedziemy dalej
TTITLE11=Mr. James Brown
TTITLE12=DATA
EXTD=
EXTT0=
EXTT1=
EXTT2=
EXTT3=
EXTT4=
EXTT5=
EXTT6=
EXTT7=
EXTT8=
EXTT9=
EXTT10=
EXTT11=
EXTT12=
PLAYORDER=
